<?xml version="1.0" standalone="no"?>
<!DOCTYPE svg PUBLIC "-//W3C//DTD SVG 1.1//EN" "http://www.w3.org/Graphics/SVG/1.1/DTD/svg11.dtd" >
<svg>
<metadata>
Created by FontForge 20090914 at Tue Jul  5 23:28:28 2016
 By www-data
Held by Jacob King. All commercial use must be liscensed.
</metadata>
<defs>
<font id="JKAbode-LightDemo" horiz-adv-x="542" >
  <font-face
    font-family="JK Abode"
    font-weight="300"
    font-stretch="normal"
    units-per-em="1000"
    panose-1="2 0 0 0 0 0 0 0 0 0"
    ascent="750"
    descent="-250"
    x-height="430.001"
    cap-height="739"
    bbox="0 -243.999 828.045 820"
    underline-thickness="50"
    underline-position="-50"
    unicode-range="U+0020-U+201E"
  />
<missing-glyph horiz-adv-x="209"
 />
    <glyph glyph-name=".notdef" horiz-adv-x="209"
 />
    <glyph glyph-name="space" unicode=" " horiz-adv-x="209"
 />
    <glyph glyph-name="exclam" unicode="!" horiz-adv-x="102"
d="M30 190v507l45 47v-554h-45zM30 0v105l45 -1v-104h-45z" />
    <glyph glyph-name="parenleft" unicode="(" horiz-adv-x="282"
d="M70 110c0 -28.667 5.33301 -55.834 16 -81.501s25.334 -48.167 44.001 -67.5s40.667 -34.666 66 -45.999s52.333 -17 81 -17l1 -40h-1h-2c-33.333 0.666992 -65.333 7.66699 -96 21s-57.5 31.5 -80.5 54.5s-41.167 49.667 -54.5 80s-19.333 62.5 -18 96.5v454
c-1.33301 34 4.66699 66.167 18 96.5s31.5 57 54.5 80s49.833 41.167 80.5 54.5s62.667 20.333 96 21h2h1l-1 -40c-28.667 0 -55.667 -5.66699 -81 -17s-47.333 -26.666 -66 -45.999s-33.334 -41.833 -44.001 -67.5s-16 -52.834 -16 -81.501v-454v0z" />
    <glyph glyph-name="parenright" unicode=")" horiz-adv-x="282"
d="M212 114v454c0 28.667 -5.33301 55.834 -16 81.501s-25.334 48.167 -44.001 67.5s-40.5 34.666 -65.5 45.999s-51.833 17 -80.5 17c-0.666992 0 -1 2 -1 6v14c0 6 -0.333008 12.667 -1 20h1h3c33.333 -0.666992 65.166 -7.66699 95.499 -21s57 -31.5 80 -54.5
s41 -49.667 54 -80s19.167 -62.5 18.5 -96.5v-454c0.666992 -34 -5.5 -66.167 -18.5 -96.5s-31 -57 -54 -80s-49.667 -41.167 -80 -54.5s-62.166 -20.333 -95.499 -21h-3h-1c0.666992 7.33301 1 14 1 20v14c0 4 0.333008 6 1 6c28.667 0 55.5 5.66699 80.5 17
s46.833 26.666 65.5 45.999s33.334 41.833 44.001 67.5s16 52.834 16 81.501z" />
    <glyph glyph-name="comma" unicode="," horiz-adv-x="109"
d="M94 53c0 -28.667 -4.5 -56.167 -13.5 -82.5s-22.167 -50.5 -39.5 -72.5l-33 30c10.667 14 20 29.667 28 47s12 35.333 12 54v31h46v-7z" />
    <glyph glyph-name="hyphen" unicode="-" horiz-adv-x="416"
d="M383 223h-350v45h350v-45z" />
    <glyph glyph-name="period" unicode="." horiz-adv-x="108"
d="M78 0h-45v105h45v-105z" />
    <glyph glyph-name="slash" unicode="/" horiz-adv-x="289"
d="M47 1h-45l240 749h45l-240 -749v0z" />
    <glyph glyph-name="zero" unicode="0" horiz-adv-x="556"
d="M530 502v-249c0 -34 -6.5 -66.333 -19.5 -97s-31.167 -57.667 -54.5 -81s-50 -41.333 -80 -54s-61.667 -19.334 -95 -20.001h-3h-1h-3c-33.333 0.666992 -65 7.33398 -95 20.001s-56.667 30.667 -80 54s-41.333 50.333 -54 81s-19 63 -19 97v249
c2 30 9.33301 58.833 22 86.5s29.667 52.167 51 73.5c23.333 23.333 50 41.333 80 54s61.667 19.334 95 20.001h3h1h3c33.333 -0.666992 65 -7.33398 95 -20.001s56.667 -30.667 80 -54c21.333 -21.333 38.333 -45.833 51 -73.5s20 -56.5 22 -86.5h1zM279 41
c28.667 0 55.5 5.66699 80.5 17s46.833 26.666 65.5 45.999s33.5 41.833 44.5 67.5s16.5 52.834 16.5 81.501v249c-2 26.667 -8.83301 51.667 -20.5 75s-26.834 43.833 -45.501 61.5s-40 31.667 -64 42s-49.667 15.5 -77 15.5h-1h-2c-28 0 -54.5 -5.5 -79.5 -16.5
s-46.667 -26 -65 -45s-33 -41.167 -44 -66.5s-16.833 -52 -17.5 -80v-4v-231c0 -28.667 5.33301 -55.834 16 -81.501s25.334 -48.167 44.001 -67.5s40.5 -34.666 65.5 -45.999s51.833 -17 80.5 -17h2h1z" />
    <glyph glyph-name="one" unicode="1" horiz-adv-x="176"
d="M145 730v-64v0v0v-666h-45v621l-69 -69l-31 31l145 147v0z" />
    <glyph glyph-name="two" unicode="2" horiz-adv-x="477"
d="M461 46v-44.999h-444l45 45l304 304c16 18 28.5 38.667 37.5 62s13.5 47.666 13.5 72.999c0 28.667 -5.5 55.667 -16.5 81s-26 47.333 -45 66s-41 33.5 -66 44.5s-51.833 16.5 -80.5 16.5s-55.5 -5.33301 -80.5 -16s-47.167 -25.667 -66.5 -45l-31 31
c23.333 24 50.333 42.333 81 55s63 19 97 19s66.167 -6.33301 96.5 -19s57.5 -31 81.5 -55c23.333 -23.333 41.5 -50.333 54.5 -81s19.5 -63 19.5 -97c0 -31.333 -5.5 -61 -16.5 -89s-26.5 -53.667 -46.5 -77l-1 -1l-271 -272h335z" />
    <glyph glyph-name="three" unicode="3" horiz-adv-x="472"
d="M444 486c0 -42 -9.66406 -81.334 -28.9971 -118.001c19.333 -36.667 29 -76 29 -118c0 -34.667 -6.66699 -67.167 -20 -97.5s-31.333 -57 -54 -80s-49.334 -41.167 -80.001 -54.5s-63 -20 -97 -20s-66.333 6.33301 -97 19s-57.667 31 -81 55l31 31
c18.667 -19.333 40.5 -34.333 65.5 -45s52.167 -16 81.5 -16c28.667 0 55.5 5.5 80.5 16.5s46.833 25.833 65.5 44.5s33.5 40.667 44.5 66s16.5 52.333 16.5 81c0 26 -4.66699 51 -14 75l-10 22c-3.33301 7.33301 -7.66602 14.333 -12.999 21c24.667 34 37 73.333 37 118
c0 28.667 -5.5 55.667 -16.5 81s-25.833 47.333 -44.5 66s-40.5 33.5 -65.5 44.5s-51.833 16.5 -80.5 16.5c-27.333 0 -52.666 -4.66699 -75.999 -14s-44.333 -22.666 -63 -39.999l-28 35c23.333 20 49.166 35.5 77.499 46.5s58.166 16.5 89.499 16.5
c33.333 0 65.333 -6.66699 96 -20s57.667 -31.5 81 -54.5s41.666 -49.833 54.999 -80.5s19.666 -63 18.999 -97z" />
    <glyph glyph-name="four" unicode="4" horiz-adv-x="509"
d="M480 363v-46v0v-318h-45v318l-435 1l417 417h64l-372 -372h371v0z" />
    <glyph glyph-name="five" unicode="5" horiz-adv-x="464"
d="M378 431c23.333 -24 41.333 -51.168 54 -81.501s19 -62.5 19 -96.5s-6.33301 -66.167 -19 -96.5s-30.667 -57.5 -54 -81.5c-24 -23.333 -51.167 -41.5 -81.5 -54.5s-62.5 -19.5 -96.5 -19.5s-66.333 6.5 -97 19.5s-57.667 31.167 -81 54.5l31 31
c20 -20 43 -35.167 69 -45.5s52.5 -15.666 79.5 -15.999s53.5 4.5 79.5 14.5s49 25 69 45s35 43.167 45 69.5s15 53 15 80s-5 53.667 -15 80s-25 49.5 -45 69.5h-1c-20 18 -42.833 32.167 -68.5 42.5s-52.5 15.5 -80.5 15.5h-153v44v235h335l46 -46h-336v-189h108
c34 0 66.167 -6.33301 96.5 -19s57.5 -31 81.5 -55z" />
    <glyph glyph-name="six" unicode="6" horiz-adv-x="577"
d="M421 740h65.001l-346 -344c-20 -20 -35.333 -43 -46 -69s-16.334 -52.333 -17.001 -79s4 -53 14 -79s25 -49 45 -69s43 -35 69 -45s52.667 -14.833 80 -14.5s54 5.66602 80 15.999s49 25.5 69 45.5s35.167 42.833 45.5 68.5s15.5 51.834 15.5 78.501
s-5.16699 52.834 -15.5 78.501s-25.5 48.5 -45.5 68.5c-7.33301 6.66699 -14.5 12.667 -21.5 18s-14.5 10.333 -22.5 15c2.66699 4.66699 5 9.16699 7 13.5l6 13.5c1.33301 2.66699 2.33301 5 3 7s1.66699 4.33301 3 7c10 -6 19.667 -12.5 29 -19.5s18.333 -14.833 27 -23.5
c24 -24 42 -51.5 54 -82.5s18 -62.667 18 -95s-6 -64 -18 -95s-30 -58.833 -54 -83.5c-24.667 -24 -52.5 -42.167 -83.5 -54.5s-62.667 -18.5 -95 -18.5s-63.833 6 -94.5 18s-58.334 30.333 -83.001 55c-24 24 -42.167 51.667 -54.5 83s-18.666 63.166 -18.999 95.499
s5.5 64 17.5 95s30.667 58.5 56 82.5z" />
    <glyph glyph-name="seven" unicode="7" horiz-adv-x="527"
d="M81 0h-53l418 690h-438l46 46h471z" />
    <glyph glyph-name="eight" unicode="8" horiz-adv-x="556"
d="M502 366c18.667 -36 28 -74.333 28 -115c0 -34 -6.5 -66.167 -19.5 -96.5s-31.167 -57.5 -54.5 -81.5c-24 -23.333 -51.167 -41.333 -81.5 -54s-62.5 -19 -96.5 -19s-66.333 6.33301 -97 19s-57.667 30.667 -81 54c-18 18 -33 38.5 -45 61.5s-20.333 46.833 -25 71.5
c-1.33301 7.33301 -2.33301 14.833 -3 22.5s-1 15.167 -1 22.5c0 40 9.33301 78.667 28 116c-18.667 36 -28 74.333 -28 115c0 34 6.33301 66.167 19 96.5s31 57.5 55 81.5c23.333 23.333 50.333 41.333 81 54s63 19 97 19s66.167 -6.33301 96.5 -19s57.5 -30.667 81.5 -54
c23.333 -24 41.5 -51.167 54.5 -81.5s19.5 -62.5 19.5 -96.5c0 -40 -9.33301 -78.667 -28 -116zM278 503c27.333 0 53.499 -4.16504 78.499 -12.498s48.167 -20.166 69.5 -35.499c0.666992 -0.666992 5.66699 -4.83398 15 -12.501s20 -18.5 32 -32.5
c14.667 37.333 18.334 76 11.001 116s-26 75 -56 105c-20 20 -43 35 -69 45s-52.5 14.833 -79.5 14.5s-53.5 -5.66602 -79.5 -15.999s-49 -25.5 -69 -45.5c-16.667 -16.667 -30 -35.334 -40 -56.001s-16.5 -41.834 -19.5 -63.501s-2.5 -43.5 1.5 -65.5s11.667 -43 23 -63
c2 -3.33301 3.16699 -5.33301 3.5 -6s1.5 -2.66699 3.5 -6c20 -28 45.167 -50.833 75.5 -68.5s63.5 -26.5 99.5 -26.5v-44c-34 0 -66.333 6.33301 -97 19s-57.667 31 -81 55c-3.33301 3.33301 -6.33301 6.5 -9 9.5s-5.66699 6.16699 -9 9.5
c-14 -37.333 -17.5 -76 -10.5 -116s25.5 -75 55.5 -105c20 -20 43 -35 69 -45s52.667 -14.833 80 -14.5s54 5.66602 80 15.999s49 25.5 69 45.5c17.333 17.333 31 36.5 41 57.5s16.167 42.833 18.5 65.5s1.16602 45.167 -3.50098 67.5s-13 43.5 -25 63.5
c-19.333 30 -44.666 54.333 -75.999 73s-65.333 28 -102 28v44z" />
    <glyph glyph-name="nine" unicode="9" horiz-adv-x="579"
d="M157 0h-62.9961l345 345c20 20 35.333 43 46 69s16.167 52.333 16.5 79s-4.33398 53 -14.001 79s-24.5 49 -44.5 69s-43 35 -69 45s-52.667 14.833 -80 14.5s-54 -5.66602 -80 -15.999s-49 -25.5 -69 -45.5s-35.167 -42.833 -45.5 -68.5s-15.5 -51.834 -15.5 -78.501
s5.16699 -52.834 15.5 -78.501s25.5 -48.5 45.5 -68.5c14 -14 28.667 -25.333 44 -34l-3 -6.5l-6 -13.5l-6 -13.5l-3 -6.5c-22 12.667 -41 27 -57 43c-24.667 23.333 -43 50.5 -55 81.5s-17.833 62.833 -17.5 95.5s6.66602 64.667 18.999 96s30.166 59 53.499 83
c24.667 24 52.5 42 83.5 54s62.667 18 95 18s64 -6 95 -18s58.5 -30 82.5 -54s42.167 -51.5 54.5 -82.5s18.666 -62.833 18.999 -95.5s-5.5 -64.667 -17.5 -96s-30.333 -58.666 -55 -81.999z" />
    <glyph glyph-name="question" unicode="?" horiz-adv-x="442"
d="M291 0h-45v45h45v-45zM430 478c0 -32 -5.83398 -62.502 -17.501 -91.502s-27.834 -54.833 -48.501 -77.5c-1.33301 -1.33301 -2.5 -2.66602 -3.5 -3.99902s-2.16699 -2.66602 -3.5 -3.99902c-20 -19.333 -35.833 -41.666 -47.5 -66.999s-17.5 -53 -17.5 -83h-44
c0 32 5.83301 62.5 17.5 91.5s27.834 54.833 48.501 77.5l8 8c19.333 19.333 34.833 41.666 46.5 66.999s17.5 53 17.5 83c0 28.667 -5.5 55.667 -16.5 81s-25.833 47.333 -44.5 66s-40.5 33.5 -65.5 44.5s-51.833 16.5 -80.5 16.5c-28 0 -54 -5 -78 -15
s-45.333 -23.667 -64 -41l-36 26c23.333 24 50.333 42.333 81 55s63 19 97 19s66.333 -6.66699 97 -20s57.334 -31.5 80.001 -54.5s40.667 -49.667 54 -80s20 -62.833 20 -97.5z" />
    <glyph glyph-name="A" unicode="A" horiz-adv-x="570"
d="M525 0h-44.001v250c0 28 -5.5 54.667 -16.5 80s-25.833 47.5 -44.5 66.5s-40.667 34 -66 45s-52.333 16.5 -81 16.5s-55.5 -5.5 -80.5 -16.5s-46.833 -26 -65.5 -45s-33.5 -41 -44.5 -66s-16.5 -51.833 -16.5 -80.5s5.5 -55.667 16.5 -81s25.833 -47.333 44.5 -66
s40.5 -33.5 65.5 -44.5s51.833 -16.5 80.5 -16.5c9.33301 0 18.5 0.666992 27.5 2s17.833 3 26.5 5c2.66699 -8.66699 6.33398 -18 11.001 -28c0.666992 -4 2.33398 -8.33301 5.00098 -13c-11.333 -3.33301 -22.833 -5.83301 -34.5 -7.5s-23.5 -2.5 -35.5 -2.5
c-34 0 -66.333 6.66699 -97 20s-57.334 31.5 -80.001 54.5s-40.667 49.667 -54 80s-20 62.833 -20 97.5c0 32 6.33301 63.167 19 93.5s30.167 57.333 52.5 81s48.833 42.5 79.5 56.5s64 21 100 21c34 0 66.333 -6.66699 97 -20s57.5 -31.5 80.5 -54.5
s41.167 -49.833 54.5 -80.5s20 -63 20 -97v-250z" />
    <glyph glyph-name="B" unicode="B"
d="M33 694l45 45.998l-1 -488c0 -28.667 5.33301 -55.834 16 -81.501s25.334 -48.167 44.001 -67.5s40.667 -34.666 66 -45.999s52.333 -17 81 -17s55.5 5.66699 80.5 17s47 26.666 66 45.999s34 41.833 45 67.5s16.5 52.834 16.5 81.501s-5.5 55.667 -16.5 81
s-25.833 47.333 -44.5 66s-40.5 33.5 -65.5 44.5s-51.833 16.5 -80.5 16.5c-9.33301 0 -18.5 -0.666992 -27.5 -2s-18.167 -3 -27.5 -5c-1.33301 4.66699 -2.83301 9.33398 -4.5 14.001s-3.5 9.33398 -5.5 14.001c-1.33301 4 -3 8.33301 -5 13
c11.333 3.33301 22.833 5.83301 34.5 7.5s23.5 2.5 35.5 2.5c34 0 66.333 -6.66699 97 -20s57.334 -31.5 80.001 -54.5s40.667 -49.667 54 -80s20 -62.833 20 -97.5c0 -34 -6.66699 -66.333 -20 -97s-31.333 -57.5 -54 -80.5s-49.334 -41.167 -80.001 -54.5s-63 -20 -97 -20
s-66.333 6.66699 -97 20s-57.667 31.5 -81 54.5s-41.833 49.833 -55.5 80.5s-19.834 63 -18.501 97v442z" />
    <glyph glyph-name="C" unicode="C" horiz-adv-x="473"
d="M450 73c-23.333 -24 -50.333 -42.333 -81 -55s-63 -19 -97 -19s-66.333 6.66699 -97 20s-57.334 31.5 -80.001 54.5s-40.667 49.667 -54 80s-20 62.833 -20 97.5c0 34 6.66699 66.333 20 97s31.333 57.5 54 80.5s49.334 41.167 80.001 54.5s63 20 97 20
s66.333 -6.5 97 -19.5s57.667 -31.167 81 -54.5l-30 -32c-19.333 19.333 -41.5 34.5 -66.5 45.5s-52.167 16.5 -81.5 16.5c-28.667 0 -55.5 -5.5 -80.5 -16.5s-46.833 -26 -65.5 -45s-33.5 -41 -44.5 -66s-16.5 -51.833 -16.5 -80.5s5.5 -55.667 16.5 -81
s25.833 -47.333 44.5 -66s40.5 -33.5 65.5 -44.5s51.833 -16.5 80.5 -16.5c28 0 54 5 78 15s45.333 23.667 64 41z" />
    <glyph glyph-name="D" unicode="D"
d="M509 251c0.666992 -34.667 -5.66895 -67.168 -19.002 -97.501s-31.666 -57 -54.999 -80s-50.333 -41.167 -81 -54.5s-63 -20 -97 -20s-66.333 6.66699 -97 20s-57.334 31.5 -80.001 54.5s-40.667 49.667 -54 80s-20 62.833 -20 97.5c0 34 6.66699 66.333 20 97
s31.333 57.5 54 80.5s49.334 41.167 80.001 54.5s63 20 97 20c12 0 23.833 -0.833008 35.5 -2.5s23.167 -4.16699 34.5 -7.5c-1.33301 -2.66699 -2.33301 -5 -3 -7l-2 -6c-2 -5.33301 -4 -10.166 -6 -14.499s-3.66699 -8.83301 -5 -13.5c-8.66699 2 -17.5 3.66699 -26.5 5
s-18.167 2 -27.5 2c-28.667 0 -55.5 -5.5 -80.5 -16.5s-47 -26 -66 -45s-34 -41 -45 -66s-16.5 -51.833 -16.5 -80.5s5.5 -55.834 16.5 -81.501s26 -48.167 45 -67.5s41.167 -34.666 66.5 -45.999s52.333 -17 81 -17s55.667 5.66699 81 17s47.333 26.666 66 45.999
s33.334 41.833 44.001 67.5s16 52.834 16 81.501l-1 488l45 -46v-442z" />
    <glyph glyph-name="E" unicode="E" horiz-adv-x="544"
d="M526 251c0 -34 -6.33105 -66.168 -18.998 -96.501s-31 -57.5 -55 -81.5c-23.333 -24 -50.333 -42.333 -81 -55s-63 -19 -97 -19c-5.33301 0 -10.5 0.166992 -15.5 0.5s-10.167 0.833008 -15.5 1.5c-31.333 4 -60.333 13.333 -87 28s-49.834 33.167 -69.501 55.5
s-35.167 47.833 -46.5 76.5s-17 58.667 -17 90c0 34 6.33301 66.167 19 96.5s30.667 57.5 54 81.5c24 23.333 51.167 41.5 81.5 54.5s62.5 19.5 96.5 19.5s66.333 -6.5 97 -19.5s57.667 -31.167 81 -54.5l31 -31l-173 -173l-61 1l172 172
c-19.333 19.333 -41.5 34.333 -66.5 45s-51.833 16 -80.5 16s-55.5 -5.5 -80.5 -16.5s-46.833 -26 -65.5 -45s-33.5 -41 -44.5 -66s-16.5 -51.833 -16.5 -80.5c0 -26.667 4.66699 -51.667 14 -75s22.166 -44.166 38.499 -62.499s35.5 -33.5 57.5 -45.5
s45.667 -19.667 71 -23c4.66699 -0.666992 9 -1.16699 13 -1.5s8.33301 -0.5 13 -0.5c28.667 0 55.667 5.5 81 16.5s47.333 25.833 66 44.5s33.5 40.667 44.5 66s16.5 52.333 16.5 81h44v0z" />
    <glyph glyph-name="F" unicode="F" horiz-adv-x="281"
d="M73 391c24.667 33.333 54.499 59.502 89.499 78.502s74.5 29.167 118.5 30.5l-1 -40c-27.333 0 -53.166 -5.16699 -77.499 -15.5s-45.833 -24.5 -64.5 -42.5s-33.667 -39 -45 -63s-18 -49.333 -20 -76l1 -179v-34v-50h-45v50v198v240
c-1.33301 33.333 4.83398 65.5 18.501 96.5s32.167 58.167 55.5 81.5s50.333 41.666 81 54.999s63 19.666 97 18.999l-1 -40c-28.667 0 -55.667 -5.66699 -81 -17s-47.333 -26.666 -66 -45.999s-33.334 -41.833 -44.001 -67.5s-16 -52.834 -16 -81.501v-97v0z" />
    <glyph glyph-name="G" unicode="G" horiz-adv-x="541"
d="M510 -87c0 -58 -17.9971 -109.665 -53.9971 -154.998l-33 30c11.333 14 21 29.667 29 47s12 35.333 12 54l1 361c0 28.667 -5.33301 55.834 -16 81.501s-25.334 48.167 -44.001 67.5s-40.667 34.666 -66 45.999s-52.333 17 -81 17s-55.5 -5.66699 -80.5 -17
s-47 -26.666 -66 -45.999s-34 -41.833 -45 -67.5s-16.5 -52.834 -16.5 -81.501s5.5 -55.667 16.5 -81s25.833 -47.333 44.5 -66s40.5 -33.5 65.5 -44.5s51.833 -16.5 80.5 -16.5c9.33301 0 18.5 0.666992 27.5 2s17.833 3 26.5 5c2 -4.66699 3.83301 -9.33398 5.5 -14.001
s3.5 -9.33398 5.5 -14.001c0.666992 -4 2.33398 -8.33301 5.00098 -13c-11.333 -3.33301 -22.833 -5.83301 -34.5 -7.5s-23.5 -2.5 -35.5 -2.5c-34 0 -66.333 6.66699 -97 20s-57.334 31.5 -80.001 54.5s-40.667 49.667 -54 80s-20 62.833 -20 97.5
c0 32 6.33301 63.167 19 93.5s30.167 57.333 52.5 81s48.833 42.5 79.5 56.5s64 21 100 21c34 0 66.333 -6.66699 97 -20s57.667 -31.5 81 -54.5s41.666 -49.833 54.999 -80.5s19.666 -63 18.999 -97v-337h1z" />
    <glyph glyph-name="H" unicode="H" horiz-adv-x="545"
d="M537 0l-43.9971 -0.00195312v249c0 28.667 -5.33301 55.834 -16 81.501s-25.334 48.167 -44.001 67.5s-40.5 34.666 -65.5 45.999s-51.833 17 -80.5 17h-2h-1c-28 0 -54.5 -5.5 -79.5 -16.5s-46.833 -26 -65.5 -45s-33.5 -41.167 -44.5 -66.5s-16.833 -52 -17.5 -80v-3
v-1v-249h-44v692l45 46v-346c21.333 32.667 50.166 58.834 86.499 78.501s75.5 29.834 117.5 30.501h3h1h3c34 -0.666992 65.833 -7.66699 95.5 -21s55.5 -31.333 77.5 -54s39.667 -49.167 53 -79.5s20.666 -62.833 21.999 -97.5v-249z" />
    <glyph glyph-name="I" unicode="I" horiz-adv-x="101"
d="M74 622h-45v71l45 46v-117zM29 500h45v-499h-45v499z" />
    <glyph glyph-name="J" unicode="J" horiz-adv-x="118"
d="M90 -86c0 -28.667 -4.5 -56.167 -13.5 -82.5s-22.167 -50.5 -39.5 -72.5l-33 29c11.333 14.667 21 30.5 29 47.5s12 35.167 12 54.5v610h45v-586z" />
    <glyph glyph-name="K" unicode="K" horiz-adv-x="428"
d="M422 39v-40.002h-40v41v1c0 28.667 -5.66699 55.5 -17 80.5s-26.666 46.833 -45.999 65.5s-41.833 33.334 -67.5 44.001s-52.834 16 -81.501 16h-92v1v-249h-45v692l45 46v-444h63c28.667 0 55.834 5.33301 81.501 16s48.167 25.334 67.5 44.001s34.666 40.5 45.999 65.5
s17 51.833 17 80.5h40v-1v-1c-0.666992 -33.333 -7.33398 -65 -20.001 -95s-30.667 -56.667 -54 -80c-17.333 -18 -38 -33.333 -62 -46c34 -12 64.333 -31.333 91 -58c23.333 -23.333 41.333 -50 54 -80s19.334 -61.667 20.001 -95v-3v-1zM353 496.998v1v-1z" />
    <glyph glyph-name="L" unicode="L" horiz-adv-x="105"
d="M77 0h-45v692l45 46v-738v0z" />
    <glyph glyph-name="M" unicode="M" horiz-adv-x="855"
d="M826 1l-43.999 0.000976562v249c0 28.667 -5.33301 55.834 -16 81.501s-25.334 48.167 -44.001 67.5s-40.667 34.666 -66 45.999s-52.333 17 -81 17h-1h-1c-20.667 0 -40.5 -3 -59.5 -9s-36.5 -14.333 -52.5 -25l-33 -27l-33 27c-16 10.667 -33.333 19 -52 25
s-38.334 9 -59.001 9h-2h-1c-28.667 0 -55.5 -5.66699 -80.5 -17s-46.833 -26.666 -65.5 -45.999s-33.5 -41.833 -44.5 -67.5s-16.5 -52.834 -16.5 -81.501v-249h-44v249c0.666992 34 7.33398 66.167 20.001 96.5s30.667 57.5 54 81.5c23.333 23.333 50 41.333 80 54
s61.667 19.334 95 20.001h3h1h3c25.333 -0.666992 50.166 -4.83398 74.499 -12.501s46.833 -19.167 67.5 -34.5c42.667 30 90.334 45.667 143.001 47h2h1h1h2c33.333 -0.666992 65 -7.33398 95 -20.001s56.667 -30.667 80 -54c24 -24 42.333 -51.167 55 -81.5
s19 -62.5 19 -96.5v-249z" />
    <glyph glyph-name="N" unicode="N" horiz-adv-x="559"
d="M532 1h-43.9951v249c0 28.667 -5.33301 55.834 -16 81.501s-25.334 48.167 -44.001 67.5s-40.667 34.666 -66 45.999s-52.333 17 -81 17h-1h-1c-28.667 0 -55.667 -5.66699 -81 -17s-47.333 -26.666 -66 -45.999s-33.334 -41.833 -44.001 -67.5s-16 -52.834 -16 -81.501
l1 -249h-45v249c0 32.667 6.5 64.167 19.5 94.5s30.667 57 53 80s48.666 41.5 78.999 55.5s62.833 21.333 97.5 22h2h1h3c34 -0.666992 65.833 -7.66699 95.5 -21s55.667 -31.333 78 -54s40.166 -49.167 53.499 -79.5s20.666 -62.833 21.999 -97.5v-249z" />
    <glyph glyph-name="O" unicode="O" horiz-adv-x="548"
d="M274 -2c-34.667 -1.33301 -67.167 4.83398 -97.5 18.501s-57 32.167 -80 55.5s-41.167 50.5 -54.5 81.5s-20 63.167 -20 96.5c0 34 6.66699 66.333 20 97s31.5 57.5 54.5 80.5s49.667 41.167 80 54.5s62.833 20 97.5 20c34 0 66.333 -6.66699 97 -20
s57.5 -31.5 80.5 -54.5s41.167 -49.833 54.5 -80.5s20 -63 20 -97c0 -33.333 -6.66699 -65.5 -20 -96.5s-31.5 -58.167 -54.5 -81.5s-49.833 -41.833 -80.5 -55.5s-63 -19.834 -97 -18.501zM274 458c-28.667 0 -55.667 -5.5 -81 -16.5s-47.333 -25.833 -66 -44.5
s-33.5 -40.667 -44.5 -66s-16.5 -52.333 -16.5 -81s5.5 -55.667 16.5 -81s25.833 -47.333 44.5 -66s40.667 -33.5 66 -44.5s52.333 -16.5 81 -16.5s55.5 5.5 80.5 16.5s47 25.833 66 44.5s34 40.667 45 66s16.5 52.333 16.5 81s-5.5 55.667 -16.5 81s-26 47.333 -45 66
s-41 33.5 -66 44.5s-51.833 16.5 -80.5 16.5z" />
    <glyph glyph-name="P" unicode="P"
d="M33 249c-1.33301 34.667 4.83398 67.168 18.501 97.501s32.167 57 55.5 80s50.333 41.167 81 54.5s63 20 97 20s66.333 -6.66699 97 -20s57.334 -31.5 80.001 -54.5s40.667 -49.667 54 -80s20 -62.833 20 -97.5c0 -34 -6.33301 -66.167 -19 -96.5
s-30.667 -57.5 -54 -81.5c-24 -23.333 -51.167 -41.333 -81.5 -54s-62.5 -19 -96.5 -19c-24.667 0 -48 3 -70 9c1.33301 2.66699 2.33301 5 3 7s1.33398 4.33301 2.00098 7c3.33301 7.33301 6.66602 16.666 9.99902 27.999c19.333 -5.33301 37.666 -8 54.999 -8
c28.667 0 55.5 5.5 80.5 16.5s46.833 26 65.5 45s33.5 41 44.5 66s16.5 51.833 16.5 80.5s-5.5 55.834 -16.5 81.501s-26 48.167 -45 67.5s-41 34.666 -66 45.999s-51.833 17 -80.5 17s-55.667 -5.66699 -81 -17s-47.333 -26.666 -66 -45.999s-33.334 -41.833 -44.001 -67.5
s-16 -52.834 -16 -81.501v-487l-44 45v442z" />
    <glyph glyph-name="Q" unicode="Q" horiz-adv-x="543"
d="M510 -194l-43.998 -45.002v487c0 28.667 -5.33301 55.834 -16 81.501s-25.334 48.167 -44.001 67.5s-40.667 34.666 -66 45.999s-52.333 17 -81 17s-55.667 -5.66699 -81 -17s-47.5 -26.666 -66.5 -45.999s-34 -41.833 -45 -67.5s-16.5 -52.834 -16.5 -81.501
s5.5 -55.5 16.5 -80.5s26 -47 45 -66s41 -34 66 -45s51.833 -16.5 80.5 -16.5c18 0 36 2.66699 54 8c1.33301 -5.33301 3 -10.166 5 -14.499s3.66699 -8.83301 5 -13.5c1.33301 -2.66699 2.33301 -5 3 -7s1.66699 -4.33301 3 -7c-23.333 -6 -46.666 -9 -69.999 -9
c-34 0 -66.333 6.66699 -97 20s-57.5 31.333 -80.5 54s-41.167 49.334 -54.5 80.001s-20 63 -20 97c0 34.667 6.66699 67.167 20 97.5s31.5 57 54.5 80s49.833 41.167 80.5 54.5s63 20 97 20c33.333 0 65.5 -6.66699 96.5 -20s58.167 -31.5 81.5 -54.5
s41.666 -49.667 54.999 -80s19.666 -62.833 18.999 -97.5v-442z" />
    <glyph glyph-name="R" unicode="R" horiz-adv-x="279"
d="M26 250c-1.33301 33.333 4.83301 65.335 18.5 96.002s32.167 57.667 55.5 81s50.5 41.666 81.5 54.999s63.167 19.666 96.5 18.999v-44c-28.667 0 -55.667 -5.5 -81 -16.5s-47.333 -25.833 -66 -44.5s-33.5 -40.5 -44.5 -65.5s-16.5 -51.833 -16.5 -80.5v-250h-44v250z
" />
    <glyph glyph-name="S" unicode="S" horiz-adv-x="465"
d="M284 428c24 24 51.165 42.334 81.498 55.001s62.5 19 96.5 19v-44c-28.667 0 -55.5 -5.33301 -80.5 -16s-46.833 -25.334 -65.5 -44.001s-33.5 -40.5 -44.5 -65.5s-16.833 -51.5 -17.5 -79.5c0.666992 -33.333 -5.66602 -65.5 -18.999 -96.5
s-31.666 -58.167 -54.999 -81.5s-50.333 -41.833 -81 -55.5s-62.667 -19.834 -96 -18.501v44c28 0 54.5 5.33301 79.5 16s47 25.334 66 44.001s34 40.5 45 65.5s16.5 51.5 16.5 79.5c0 34 6.33301 66.333 19 97s31 57.667 55 81z" />
    <glyph glyph-name="T" unicode="T" horiz-adv-x="280"
d="M72 254c0 -28.667 5.50098 -55.668 16.501 -81.001s25.833 -47.333 44.5 -66s40.667 -33.5 66 -44.5s52.333 -16.5 81 -16.5v-44c-34 -1.33301 -66.333 4.83398 -97 18.501s-57.667 32.167 -81 55.5s-41.833 50.333 -55.5 81s-19.834 63 -18.501 97v443l44 44v-238h208
v-44h-208v-205z" />
    <glyph glyph-name="U" unicode="U" horiz-adv-x="565"
d="M31 501h43.9961v-249c0 -28.667 5.33301 -55.667 16 -81s25.334 -47.666 44.001 -66.999s40.5 -34.666 65.5 -45.999s51.833 -17 80.5 -17h2h1c28.667 0 55.5 5.66699 80.5 17s46.833 26.666 65.5 45.999s33.5 41.666 44.5 66.999s16.5 52.333 16.5 81l-1 249h45v-249
c0.666992 -34 -5.66602 -66.167 -18.999 -96.5s-31.5 -57 -54.5 -80s-49.667 -41.167 -80 -54.5s-62.166 -20 -95.499 -20h-3h-1h-3c-33.333 0 -65.166 6.66699 -95.499 20s-57 31.5 -80 54.5s-41.167 49.667 -54.5 80s-19.333 62.5 -18 96.5v249z" />
    <glyph glyph-name="V" unicode="V" horiz-adv-x="521"
d="M508 480l-223 -479h-49l-223 477l41 22l207 -447l208 447l39 -20v0z" />
    <glyph glyph-name="W" unicode="W" horiz-adv-x="861"
d="M32 500h43.9961v-249c0 -28.667 5.5 -55.667 16.5 -81s25.833 -47.666 44.5 -66.999s40.5 -34.666 65.5 -45.999s51.833 -17 80.5 -17h1h2c41.333 0 78.333 11.333 111 34l33 27l33 -27c32.667 -22.667 70 -34 112 -34h1h1c28.667 0 55.667 5.66699 81 17
s47.333 26.666 66 45.999s33.334 41.666 44.001 66.999s16 52.333 16 81v249h44v-249c0.666992 -34 -5.66602 -66.167 -18.999 -96.5s-31.5 -57 -54.5 -80s-49.667 -41.167 -80 -54.5s-62.166 -20 -95.499 -20h-3h-1h-2c-52.667 -0 -100.334 15.333 -143.001 46
c-42 -30.667 -89.333 -46 -142 -46h-3h-1h-3c-33.333 0 -65.166 6.66699 -95.499 20s-57 31.5 -80 54.5s-41.167 49.667 -54.5 80s-19.666 62.5 -18.999 96.5v249z" />
    <glyph glyph-name="X" unicode="X" horiz-adv-x="570"
d="M389 256c22 -10 42.167 -22.999 60.5 -38.999s34 -34.167 47 -54.5s23 -42.166 30 -65.499s10.5 -47 10.5 -71c0 -4.66699 -0.166992 -9 -0.5 -13s-0.833008 -8.33301 -1.5 -13h-44c0.666992 4.66699 1.16699 9 1.5 13s0.5 8.33301 0.5 13c0 28 -5.16699 54.333 -15.5 79
s-24.5 46.5 -42.5 65.5s-39.167 34 -63.5 45s-50.5 17.167 -78.5 18.5h-8h-8c-28 -1.33301 -54.167 -7.5 -78.5 -18.5s-45.5 -26 -63.5 -45s-32.167 -40.833 -42.5 -65.5s-15.5 -51 -15.5 -79c0 -4.66699 0.166992 -9 0.5 -13s0.833008 -8.33301 1.5 -13l-44 1
c-0.666992 4 -1.16699 8.16699 -1.5 12.5s-0.5 8.5 -0.5 12.5c0 24 3.5 47.667 10.5 71s17 45.166 30 65.499s28.667 38.5 47 54.5s38.833 29 61.5 39c-22.667 9.33301 -43.167 22 -61.5 38s-34 34.167 -47 54.5s-23 42.166 -30 65.499s-10.5 47 -10.5 71
c0 7.33301 0.333008 12.666 1 15.999h44c-0.666992 -3.33301 -1 -8.66602 -1 -15.999c0 -28 5.16699 -54.333 15.5 -79s24.5 -46.334 42.5 -65.001s39.167 -33.667 63.5 -45s50.5 -17.333 78.5 -18h8h8c28 0.666992 54.167 6.66699 78.5 18s45.5 26.333 63.5 45
s32.167 40.334 42.5 65.001s15.5 51 15.5 79c0 6.66699 -0.333008 11.667 -1 15h44c0.666992 -3.33301 1 -8.33301 1 -15c0 -24 -3.5 -47.667 -10.5 -71s-17 -45 -30 -65s-28.5 -38 -46.5 -54s-38.333 -29 -61 -39z" />
    <glyph glyph-name="Y" unicode="Y" horiz-adv-x="540"
d="M509 -89c0 -58.667 -17.665 -110.332 -52.998 -154.999l-33 29c11.333 14.667 21 30.5 29 47.5s12 35.167 12 54.5l1 221c-23.333 -32 -52.833 -58 -88.5 -78s-75.167 -30 -118.5 -30c-34.667 0 -67.167 6.66699 -97.5 20s-57 31.5 -80 54.5s-41.167 49.667 -54.5 80
s-20 62.833 -20 97.5c0 34 6.33301 66.167 19 96.5s31 57.5 55 81.5l31 -31c-19.333 -19.333 -34.333 -41.5 -45 -66.5s-16 -51.833 -16 -80.5s5.5 -55.667 16.5 -81s25.833 -47.333 44.5 -66s40.667 -33.5 66 -44.5s52.333 -16.5 81 -16.5c27.333 0 53.166 5 77.499 15
s45.833 23.833 64.5 41.5s33.667 38.167 45 61.5s18 48.666 20 75.999v10v13c-1.33301 25.333 -6.83301 49.5 -16.5 72.5s-22.834 43.167 -39.501 60.5l27 36c23.333 -24 41.333 -51.167 54 -81.5s19 -62.5 19 -96.5v-14v-327z" />
    <glyph glyph-name="Z" unicode="Z" horiz-adv-x="551"
d="M99 63c9.33301 -4.66699 18.499 -8.66699 27.499 -12s19.167 -5 30.5 -5l362 -1v-44h-338v-1c-28.667 0 -56.167 4.5 -82.5 13.5s-50.5 22.167 -72.5 39.5l33 32l370 371l-267 -1c-19.333 0 -37.5 -4 -54.5 -12s-32.833 -17.667 -47.5 -29l-29 33
c44.667 35.333 96.334 53 155.001 53h351l-438 -437v0z" />
    <glyph glyph-name="a" unicode="a" horiz-adv-x="552"
d="M525 0h-44.001v250c0 28 -5.5 54.667 -16.5 80s-25.833 47.5 -44.5 66.5s-40.667 34 -66 45s-52.333 16.5 -81 16.5s-55.5 -5.5 -80.5 -16.5s-46.833 -26 -65.5 -45s-33.5 -41 -44.5 -66s-16.5 -51.833 -16.5 -80.5s5.5 -55.667 16.5 -81s25.833 -47.333 44.5 -66
s40.5 -33.5 65.5 -44.5s51.833 -16.5 80.5 -16.5c9.33301 0 18.5 0.666992 27.5 2s17.833 3 26.5 5c2.66699 -8.66699 6.33398 -18 11.001 -28c0.666992 -4 2.33398 -8.33301 5.00098 -13c-11.333 -3.33301 -22.833 -5.83301 -34.5 -7.5s-23.5 -2.5 -35.5 -2.5
c-34 0 -66.333 6.66699 -97 20s-57.334 31.5 -80.001 54.5s-40.667 49.667 -54 80s-20 62.833 -20 97.5c0 32 6.33301 63.167 19 93.5s30.167 57.333 52.5 81s48.833 42.5 79.5 56.5s64 21 100 21c34 0 66.333 -6.66699 97 -20s57.5 -31.5 80.5 -54.5
s41.167 -49.833 54.5 -80.5s20 -63 20 -97v-250z" />
    <glyph glyph-name="b" unicode="b"
d="M33 694l45 45.998l-1 -488c0 -28.667 5.33301 -55.834 16 -81.501s25.334 -48.167 44.001 -67.5s40.667 -34.666 66 -45.999s52.333 -17 81 -17s55.5 5.66699 80.5 17s47 26.666 66 45.999s34 41.833 45 67.5s16.5 52.834 16.5 81.501s-5.5 55.667 -16.5 81
s-25.833 47.333 -44.5 66s-40.5 33.5 -65.5 44.5s-51.833 16.5 -80.5 16.5c-9.33301 0 -18.5 -0.666992 -27.5 -2s-18.167 -3 -27.5 -5c-1.33301 4.66699 -2.83301 9.33398 -4.5 14.001s-3.5 9.33398 -5.5 14.001c-1.33301 4 -3 8.33301 -5 13
c11.333 3.33301 22.833 5.83301 34.5 7.5s23.5 2.5 35.5 2.5c34 0 66.333 -6.66699 97 -20s57.334 -31.5 80.001 -54.5s40.667 -49.667 54 -80s20 -62.833 20 -97.5c0 -34 -6.66699 -66.333 -20 -97s-31.333 -57.5 -54 -80.5s-49.334 -41.167 -80.001 -54.5s-63 -20 -97 -20
s-66.333 6.66699 -97 20s-57.667 31.5 -81 54.5s-41.833 49.833 -55.5 80.5s-19.834 63 -18.501 97v442z" />
    <glyph glyph-name="c" unicode="c" horiz-adv-x="473"
d="M450 73c-23.333 -24 -50.333 -42.333 -81 -55s-63 -19 -97 -19s-66.333 6.66699 -97 20s-57.334 31.5 -80.001 54.5s-40.667 49.667 -54 80s-20 62.833 -20 97.5c0 34 6.66699 66.333 20 97s31.333 57.5 54 80.5s49.334 41.167 80.001 54.5s63 20 97 20
s66.333 -6.5 97 -19.5s57.667 -31.167 81 -54.5l-30 -32c-19.333 19.333 -41.5 34.5 -66.5 45.5s-52.167 16.5 -81.5 16.5c-28.667 0 -55.5 -5.5 -80.5 -16.5s-46.833 -26 -65.5 -45s-33.5 -41 -44.5 -66s-16.5 -51.833 -16.5 -80.5s5.5 -55.667 16.5 -81
s25.833 -47.333 44.5 -66s40.5 -33.5 65.5 -44.5s51.833 -16.5 80.5 -16.5c28 0 54 5 78 15s45.333 23.667 64 41z" />
    <glyph glyph-name="d" unicode="d"
d="M509 251c0.666992 -34.667 -5.66895 -67.168 -19.002 -97.501s-31.666 -57 -54.999 -80s-50.333 -41.167 -81 -54.5s-63 -20 -97 -20s-66.333 6.66699 -97 20s-57.334 31.5 -80.001 54.5s-40.667 49.667 -54 80s-20 62.833 -20 97.5c0 34 6.66699 66.333 20 97
s31.333 57.5 54 80.5s49.334 41.167 80.001 54.5s63 20 97 20c12 0 23.833 -0.833008 35.5 -2.5s23.167 -4.16699 34.5 -7.5c-1.33301 -2.66699 -2.33301 -5 -3 -7l-2 -6c-2 -5.33301 -4 -10.166 -6 -14.499s-3.66699 -8.83301 -5 -13.5c-8.66699 2 -17.5 3.66699 -26.5 5
s-18.167 2 -27.5 2c-28.667 0 -55.5 -5.5 -80.5 -16.5s-47 -26 -66 -45s-34 -41 -45 -66s-16.5 -51.833 -16.5 -80.5s5.5 -55.834 16.5 -81.501s26 -48.167 45 -67.5s41.167 -34.666 66.5 -45.999s52.333 -17 81 -17s55.667 5.66699 81 17s47.333 26.666 66 45.999
s33.334 41.833 44.001 67.5s16 52.834 16 81.501l-1 488l45 -46v-442z" />
    <glyph glyph-name="e" unicode="e" horiz-adv-x="544"
d="M526 251c0 -34 -6.33105 -66.168 -18.998 -96.501s-31 -57.5 -55 -81.5c-23.333 -24 -50.333 -42.333 -81 -55s-63 -19 -97 -19c-5.33301 0 -10.5 0.166992 -15.5 0.5s-10.167 0.833008 -15.5 1.5c-31.333 4 -60.333 13.333 -87 28s-49.834 33.167 -69.501 55.5
s-35.167 47.833 -46.5 76.5s-17 58.667 -17 90c0 34 6.33301 66.167 19 96.5s30.667 57.5 54 81.5c24 23.333 51.167 41.5 81.5 54.5s62.5 19.5 96.5 19.5s66.333 -6.5 97 -19.5s57.667 -31.167 81 -54.5l31 -31l-173 -173l-61 1l172 172
c-19.333 19.333 -41.5 34.333 -66.5 45s-51.833 16 -80.5 16s-55.5 -5.5 -80.5 -16.5s-46.833 -26 -65.5 -45s-33.5 -41 -44.5 -66s-16.5 -51.833 -16.5 -80.5c0 -26.667 4.66699 -51.667 14 -75s22.166 -44.166 38.499 -62.499s35.5 -33.5 57.5 -45.5
s45.667 -19.667 71 -23c4.66699 -0.666992 9 -1.16699 13 -1.5s8.33301 -0.5 13 -0.5c28.667 0 55.667 5.5 81 16.5s47.333 25.833 66 44.5s33.5 40.667 44.5 66s16.5 52.333 16.5 81h44v0z" />
    <glyph glyph-name="f" unicode="f" horiz-adv-x="281"
d="M73 391c24.667 33.333 54.499 59.502 89.499 78.502s74.5 29.167 118.5 30.5l-1 -40c-27.333 0 -53.166 -5.16699 -77.499 -15.5s-45.833 -24.5 -64.5 -42.5s-33.667 -39 -45 -63s-18 -49.333 -20 -76l1 -179v-34v-50h-45v50v198v240
c-1.33301 33.333 4.83398 65.5 18.501 96.5s32.167 58.167 55.5 81.5s50.333 41.666 81 54.999s63 19.666 97 18.999l-1 -40c-28.667 0 -55.667 -5.66699 -81 -17s-47.333 -26.666 -66 -45.999s-33.334 -41.833 -44.001 -67.5s-16 -52.834 -16 -81.501v-97v0z" />
    <glyph glyph-name="g" unicode="g" horiz-adv-x="541"
d="M510 -87c0 -58 -17.9971 -109.665 -53.9971 -154.998l-33 30c11.333 14 21 29.667 29 47s12 35.333 12 54l1 361c0 28.667 -5.33301 55.834 -16 81.501s-25.334 48.167 -44.001 67.5s-40.667 34.666 -66 45.999s-52.333 17 -81 17s-55.5 -5.66699 -80.5 -17
s-47 -26.666 -66 -45.999s-34 -41.833 -45 -67.5s-16.5 -52.834 -16.5 -81.501s5.5 -55.667 16.5 -81s25.833 -47.333 44.5 -66s40.5 -33.5 65.5 -44.5s51.833 -16.5 80.5 -16.5c9.33301 0 18.5 0.666992 27.5 2s17.833 3 26.5 5c2 -4.66699 3.83301 -9.33398 5.5 -14.001
s3.5 -9.33398 5.5 -14.001c0.666992 -4 2.33398 -8.33301 5.00098 -13c-11.333 -3.33301 -22.833 -5.83301 -34.5 -7.5s-23.5 -2.5 -35.5 -2.5c-34 0 -66.333 6.66699 -97 20s-57.334 31.5 -80.001 54.5s-40.667 49.667 -54 80s-20 62.833 -20 97.5
c0 32 6.33301 63.167 19 93.5s30.167 57.333 52.5 81s48.833 42.5 79.5 56.5s64 21 100 21c34 0 66.333 -6.66699 97 -20s57.667 -31.5 81 -54.5s41.666 -49.833 54.999 -80.5s19.666 -63 18.999 -97v-337h1z" />
    <glyph glyph-name="h" unicode="h" horiz-adv-x="545"
d="M537 0l-43.9971 -0.00195312v249c0 28.667 -5.33301 55.834 -16 81.501s-25.334 48.167 -44.001 67.5s-40.5 34.666 -65.5 45.999s-51.833 17 -80.5 17h-2h-1c-28 0 -54.5 -5.5 -79.5 -16.5s-46.833 -26 -65.5 -45s-33.5 -41.167 -44.5 -66.5s-16.833 -52 -17.5 -80v-3
v-1v-249h-44v692l45 46v-346c21.333 32.667 50.166 58.834 86.499 78.501s75.5 29.834 117.5 30.501h3h1h3c34 -0.666992 65.833 -7.66699 95.5 -21s55.5 -31.333 77.5 -54s39.667 -49.167 53 -79.5s20.666 -62.833 21.999 -97.5v-249z" />
    <glyph glyph-name="i" unicode="i" horiz-adv-x="101"
d="M74 622h-45v71l45 46v-117zM29 500h45v-499h-45v499z" />
    <glyph glyph-name="j" unicode="j" horiz-adv-x="118"
d="M90 -86c0 -28.667 -4.5 -56.167 -13.5 -82.5s-22.167 -50.5 -39.5 -72.5l-33 29c11.333 14.667 21 30.5 29 47.5s12 35.167 12 54.5v610h45v-586z" />
    <glyph glyph-name="k" unicode="k" horiz-adv-x="428"
d="M422 39v-40.002h-40v41v1c0 28.667 -5.66699 55.5 -17 80.5s-26.666 46.833 -45.999 65.5s-41.833 33.334 -67.5 44.001s-52.834 16 -81.501 16h-92v1v-249h-45v692l45 46v-444h63c28.667 0 55.834 5.33301 81.501 16s48.167 25.334 67.5 44.001s34.666 40.5 45.999 65.5
s17 51.833 17 80.5h40v-1v-1c-0.666992 -33.333 -7.33398 -65 -20.001 -95s-30.667 -56.667 -54 -80c-17.333 -18 -38 -33.333 -62 -46c34 -12 64.333 -31.333 91 -58c23.333 -23.333 41.333 -50 54 -80s19.334 -61.667 20.001 -95v-3v-1zM353 496.998v1v-1z" />
    <glyph glyph-name="l" unicode="l" horiz-adv-x="105"
d="M77 0h-45v692l45 46v-738v0z" />
    <glyph glyph-name="m" unicode="m" horiz-adv-x="855"
d="M826 1l-43.999 0.000976562v249c0 28.667 -5.33301 55.834 -16 81.501s-25.334 48.167 -44.001 67.5s-40.667 34.666 -66 45.999s-52.333 17 -81 17h-1h-1c-20.667 0 -40.5 -3 -59.5 -9s-36.5 -14.333 -52.5 -25l-33 -27l-33 27c-16 10.667 -33.333 19 -52 25
s-38.334 9 -59.001 9h-2h-1c-28.667 0 -55.5 -5.66699 -80.5 -17s-46.833 -26.666 -65.5 -45.999s-33.5 -41.833 -44.5 -67.5s-16.5 -52.834 -16.5 -81.501v-249h-44v249c0.666992 34 7.33398 66.167 20.001 96.5s30.667 57.5 54 81.5c23.333 23.333 50 41.333 80 54
s61.667 19.334 95 20.001h3h1h3c25.333 -0.666992 50.166 -4.83398 74.499 -12.501s46.833 -19.167 67.5 -34.5c42.667 30 90.334 45.667 143.001 47h2h1h1h2c33.333 -0.666992 65 -7.33398 95 -20.001s56.667 -30.667 80 -54c24 -24 42.333 -51.167 55 -81.5
s19 -62.5 19 -96.5v-249z" />
    <glyph glyph-name="n" unicode="n" horiz-adv-x="559"
d="M532 1h-43.9951v249c0 28.667 -5.33301 55.834 -16 81.501s-25.334 48.167 -44.001 67.5s-40.667 34.666 -66 45.999s-52.333 17 -81 17h-1h-1c-28.667 0 -55.667 -5.66699 -81 -17s-47.333 -26.666 -66 -45.999s-33.334 -41.833 -44.001 -67.5s-16 -52.834 -16 -81.501
l1 -249h-45v249c0 32.667 6.5 64.167 19.5 94.5s30.667 57 53 80s48.666 41.5 78.999 55.5s62.833 21.333 97.5 22h2h1h3c34 -0.666992 65.833 -7.66699 95.5 -21s55.667 -31.333 78 -54s40.166 -49.167 53.499 -79.5s20.666 -62.833 21.999 -97.5v-249z" />
    <glyph glyph-name="o" unicode="o" horiz-adv-x="548"
d="M274 -2c-34.667 -1.33301 -67.167 4.83398 -97.5 18.501s-57 32.167 -80 55.5s-41.167 50.5 -54.5 81.5s-20 63.167 -20 96.5c0 34 6.66699 66.333 20 97s31.5 57.5 54.5 80.5s49.667 41.167 80 54.5s62.833 20 97.5 20c34 0 66.333 -6.66699 97 -20
s57.5 -31.5 80.5 -54.5s41.167 -49.833 54.5 -80.5s20 -63 20 -97c0 -33.333 -6.66699 -65.5 -20 -96.5s-31.5 -58.167 -54.5 -81.5s-49.833 -41.833 -80.5 -55.5s-63 -19.834 -97 -18.501zM274 458c-28.667 0 -55.667 -5.5 -81 -16.5s-47.333 -25.833 -66 -44.5
s-33.5 -40.667 -44.5 -66s-16.5 -52.333 -16.5 -81s5.5 -55.667 16.5 -81s25.833 -47.333 44.5 -66s40.667 -33.5 66 -44.5s52.333 -16.5 81 -16.5s55.5 5.5 80.5 16.5s47 25.833 66 44.5s34 40.667 45 66s16.5 52.333 16.5 81s-5.5 55.667 -16.5 81s-26 47.333 -45 66
s-41 33.5 -66 44.5s-51.833 16.5 -80.5 16.5z" />
    <glyph glyph-name="p" unicode="p"
d="M33 249c-1.33301 34.667 4.83398 67.168 18.501 97.501s32.167 57 55.5 80s50.333 41.167 81 54.5s63 20 97 20s66.333 -6.66699 97 -20s57.334 -31.5 80.001 -54.5s40.667 -49.667 54 -80s20 -62.833 20 -97.5c0 -34 -6.33301 -66.167 -19 -96.5
s-30.667 -57.5 -54 -81.5c-24 -23.333 -51.167 -41.333 -81.5 -54s-62.5 -19 -96.5 -19c-24.667 0 -48 3 -70 9c1.33301 2.66699 2.33301 5 3 7s1.33398 4.33301 2.00098 7c3.33301 7.33301 6.66602 16.666 9.99902 27.999c19.333 -5.33301 37.666 -8 54.999 -8
c28.667 0 55.5 5.5 80.5 16.5s46.833 26 65.5 45s33.5 41 44.5 66s16.5 51.833 16.5 80.5s-5.5 55.834 -16.5 81.501s-26 48.167 -45 67.5s-41 34.666 -66 45.999s-51.833 17 -80.5 17s-55.667 -5.66699 -81 -17s-47.333 -26.666 -66 -45.999s-33.334 -41.833 -44.001 -67.5
s-16 -52.834 -16 -81.501v-487l-44 45v442z" />
    <glyph glyph-name="q" unicode="q" horiz-adv-x="543"
d="M510 -194l-43.998 -45.002v487c0 28.667 -5.33301 55.834 -16 81.501s-25.334 48.167 -44.001 67.5s-40.667 34.666 -66 45.999s-52.333 17 -81 17s-55.667 -5.66699 -81 -17s-47.5 -26.666 -66.5 -45.999s-34 -41.833 -45 -67.5s-16.5 -52.834 -16.5 -81.501
s5.5 -55.5 16.5 -80.5s26 -47 45 -66s41 -34 66 -45s51.833 -16.5 80.5 -16.5c18 0 36 2.66699 54 8c1.33301 -5.33301 3 -10.166 5 -14.499s3.66699 -8.83301 5 -13.5c1.33301 -2.66699 2.33301 -5 3 -7s1.66699 -4.33301 3 -7c-23.333 -6 -46.666 -9 -69.999 -9
c-34 0 -66.333 6.66699 -97 20s-57.5 31.333 -80.5 54s-41.167 49.334 -54.5 80.001s-20 63 -20 97c0 34.667 6.66699 67.167 20 97.5s31.5 57 54.5 80s49.833 41.167 80.5 54.5s63 20 97 20c33.333 0 65.5 -6.66699 96.5 -20s58.167 -31.5 81.5 -54.5
s41.666 -49.667 54.999 -80s19.666 -62.833 18.999 -97.5v-442z" />
    <glyph glyph-name="r" unicode="r" horiz-adv-x="279"
d="M26 250c-1.33301 33.333 4.83301 65.335 18.5 96.002s32.167 57.667 55.5 81s50.5 41.666 81.5 54.999s63.167 19.666 96.5 18.999v-44c-28.667 0 -55.667 -5.5 -81 -16.5s-47.333 -25.833 -66 -44.5s-33.5 -40.5 -44.5 -65.5s-16.5 -51.833 -16.5 -80.5v-250h-44v250z
" />
    <glyph glyph-name="s" unicode="s" horiz-adv-x="465"
d="M284 428c24 24 51.165 42.334 81.498 55.001s62.5 19 96.5 19v-44c-28.667 0 -55.5 -5.33301 -80.5 -16s-46.833 -25.334 -65.5 -44.001s-33.5 -40.5 -44.5 -65.5s-16.833 -51.5 -17.5 -79.5c0.666992 -33.333 -5.66602 -65.5 -18.999 -96.5
s-31.666 -58.167 -54.999 -81.5s-50.333 -41.833 -81 -55.5s-62.667 -19.834 -96 -18.501v44c28 0 54.5 5.33301 79.5 16s47 25.334 66 44.001s34 40.5 45 65.5s16.5 51.5 16.5 79.5c0 34 6.33301 66.333 19 97s31 57.667 55 81z" />
    <glyph glyph-name="t" unicode="t" horiz-adv-x="280"
d="M72 254c0 -28.667 5.50098 -55.668 16.501 -81.001s25.833 -47.333 44.5 -66s40.667 -33.5 66 -44.5s52.333 -16.5 81 -16.5v-44c-34 -1.33301 -66.333 4.83398 -97 18.501s-57.667 32.167 -81 55.5s-41.833 50.333 -55.5 81s-19.834 63 -18.501 97v443l44 44v-238h208
v-44h-208v-205z" />
    <glyph glyph-name="u" unicode="u" horiz-adv-x="565"
d="M31 501h43.9961v-249c0 -28.667 5.33301 -55.667 16 -81s25.334 -47.666 44.001 -66.999s40.5 -34.666 65.5 -45.999s51.833 -17 80.5 -17h2h1c28.667 0 55.5 5.66699 80.5 17s46.833 26.666 65.5 45.999s33.5 41.666 44.5 66.999s16.5 52.333 16.5 81l-1 249h45v-249
c0.666992 -34 -5.66602 -66.167 -18.999 -96.5s-31.5 -57 -54.5 -80s-49.667 -41.167 -80 -54.5s-62.166 -20 -95.499 -20h-3h-1h-3c-33.333 0 -65.166 6.66699 -95.499 20s-57 31.5 -80 54.5s-41.167 49.667 -54.5 80s-19.333 62.5 -18 96.5v249z" />
    <glyph glyph-name="v" unicode="v" horiz-adv-x="521"
d="M508 480l-223 -479h-49l-223 477l41 22l207 -447l208 447l39 -20v0z" />
    <glyph glyph-name="w" unicode="w" horiz-adv-x="861"
d="M32 500h43.9961v-249c0 -28.667 5.5 -55.667 16.5 -81s25.833 -47.666 44.5 -66.999s40.5 -34.666 65.5 -45.999s51.833 -17 80.5 -17h1h2c41.333 0 78.333 11.333 111 34l33 27l33 -27c32.667 -22.667 70 -34 112 -34h1h1c28.667 0 55.667 5.66699 81 17
s47.333 26.666 66 45.999s33.334 41.666 44.001 66.999s16 52.333 16 81v249h44v-249c0.666992 -34 -5.66602 -66.167 -18.999 -96.5s-31.5 -57 -54.5 -80s-49.667 -41.167 -80 -54.5s-62.166 -20 -95.499 -20h-3h-1h-2c-52.667 -0 -100.334 15.333 -143.001 46
c-42 -30.667 -89.333 -46 -142 -46h-3h-1h-3c-33.333 0 -65.166 6.66699 -95.499 20s-57 31.5 -80 54.5s-41.167 49.667 -54.5 80s-19.666 62.5 -18.999 96.5v249z" />
    <glyph glyph-name="x" unicode="x" horiz-adv-x="570"
d="M389 256c22 -10 42.167 -22.999 60.5 -38.999s34 -34.167 47 -54.5s23 -42.166 30 -65.499s10.5 -47 10.5 -71c0 -4.66699 -0.166992 -9 -0.5 -13s-0.833008 -8.33301 -1.5 -13h-44c0.666992 4.66699 1.16699 9 1.5 13s0.5 8.33301 0.5 13c0 28 -5.16699 54.333 -15.5 79
s-24.5 46.5 -42.5 65.5s-39.167 34 -63.5 45s-50.5 17.167 -78.5 18.5h-8h-8c-28 -1.33301 -54.167 -7.5 -78.5 -18.5s-45.5 -26 -63.5 -45s-32.167 -40.833 -42.5 -65.5s-15.5 -51 -15.5 -79c0 -4.66699 0.166992 -9 0.5 -13s0.833008 -8.33301 1.5 -13l-44 1
c-0.666992 4 -1.16699 8.16699 -1.5 12.5s-0.5 8.5 -0.5 12.5c0 24 3.5 47.667 10.5 71s17 45.166 30 65.499s28.667 38.5 47 54.5s38.833 29 61.5 39c-22.667 9.33301 -43.167 22 -61.5 38s-34 34.167 -47 54.5s-23 42.166 -30 65.499s-10.5 47 -10.5 71
c0 7.33301 0.333008 12.666 1 15.999h44c-0.666992 -3.33301 -1 -8.66602 -1 -15.999c0 -28 5.16699 -54.333 15.5 -79s24.5 -46.334 42.5 -65.001s39.167 -33.667 63.5 -45s50.5 -17.333 78.5 -18h8h8c28 0.666992 54.167 6.66699 78.5 18s45.5 26.333 63.5 45
s32.167 40.334 42.5 65.001s15.5 51 15.5 79c0 6.66699 -0.333008 11.667 -1 15h44c0.666992 -3.33301 1 -8.33301 1 -15c0 -24 -3.5 -47.667 -10.5 -71s-17 -45 -30 -65s-28.5 -38 -46.5 -54s-38.333 -29 -61 -39z" />
    <glyph glyph-name="y" unicode="y" horiz-adv-x="540"
d="M509 -89c0 -58.667 -17.665 -110.332 -52.998 -154.999l-33 29c11.333 14.667 21 30.5 29 47.5s12 35.167 12 54.5l1 221c-23.333 -32 -52.833 -58 -88.5 -78s-75.167 -30 -118.5 -30c-34.667 0 -67.167 6.66699 -97.5 20s-57 31.5 -80 54.5s-41.167 49.667 -54.5 80
s-20 62.833 -20 97.5c0 34 6.33301 66.167 19 96.5s31 57.5 55 81.5l31 -31c-19.333 -19.333 -34.333 -41.5 -45 -66.5s-16 -51.833 -16 -80.5s5.5 -55.667 16.5 -81s25.833 -47.333 44.5 -66s40.667 -33.5 66 -44.5s52.333 -16.5 81 -16.5c27.333 0 53.166 5 77.499 15
s45.833 23.833 64.5 41.5s33.667 38.167 45 61.5s18 48.666 20 75.999v10v13c-1.33301 25.333 -6.83301 49.5 -16.5 72.5s-22.834 43.167 -39.501 60.5l27 36c23.333 -24 41.333 -51.167 54 -81.5s19 -62.5 19 -96.5v-14v-327z" />
    <glyph glyph-name="z" unicode="z" horiz-adv-x="551"
d="M99 63c9.33301 -4.66699 18.499 -8.66699 27.499 -12s19.167 -5 30.5 -5l362 -1v-44h-338v-1c-28.667 0 -56.167 4.5 -82.5 13.5s-50.5 22.167 -72.5 39.5l33 32l370 371l-267 -1c-19.333 0 -37.5 -4 -54.5 -12s-32.833 -17.667 -47.5 -29l-29 33
c44.667 35.333 96.334 53 155.001 53h351l-438 -437v0z" />
    <glyph glyph-name="quotesinglbase" unicode="&#x201a;" horiz-adv-x="109"
d="M94 53c0 -28.667 -4.5 -56.167 -13.5 -82.5s-22.167 -50.5 -39.5 -72.5l-33 30c10.667 14 20 29.667 28 47s12 35.333 12 54v31h46v-7z" />
    <glyph glyph-name="quotedblleft" unicode="&#x201c;" horiz-adv-x="251"
d="M148 500h46v-31c0 -18.667 4 -36.667 12 -54s17.333 -33 28 -47l-33 -30c-17.333 22 -30.5 46.167 -39.5 72.5s-13.5 53.833 -13.5 82.5v7zM48 500h46v-31c0 -18.667 4 -36.667 12 -54s17.333 -33 28 -47l-33 -30c-17.333 22 -30.5 46.167 -39.5 72.5
s-13.5 53.833 -13.5 82.5v7z" />
    <glyph glyph-name="quotedblright" unicode="&#x201d;" horiz-adv-x="228"
d="M94 493c0 -28.667 -4.5 -56.167 -13.5 -82.5s-22.167 -50.5 -39.5 -72.5l-33 30c10.667 14 20 29.667 28 47s12 35.333 12 54v31h46v-7zM194 493c0 -28.667 -4.5 -56.167 -13.5 -82.5s-22.167 -50.5 -39.5 -72.5l-33 30c10.667 14 20 29.667 28 47s12 35.333 12 54v31h46
v-7z" />
    <glyph glyph-name="quotedblbase" unicode="&#x201e;" horiz-adv-x="234"
d="M94 53c0 -28.667 -4.5 -56.167 -13.5 -82.5s-22.167 -50.5 -39.5 -72.5l-33 30c10.667 14 20 29.667 28 47s12 35.333 12 54v31h46v-7zM194 53c0 -28.667 -4.5 -56.167 -13.5 -82.5s-22.167 -50.5 -39.5 -72.5l-33 30c10.667 14 20 29.667 28 47s12 35.333 12 54v31h46
v-7z" />
    <glyph glyph-name=".null" horiz-adv-x="0"
 />
    <glyph glyph-name="nonmarkingreturn" horiz-adv-x="209"
 />
    </font>
</defs>
</svg>
